<?xml version="1.0" encoding="UTF-8" standalone="no"?>
<!DOCTYPE svg PUBLIC "-//W3C//DTD SVG 1.1//EN"
 "http://www.w3.org/Graphics/SVG/1.1/DTD/svg11.dtd">
<!-- Generated by graphviz version 2.40.1 (20161225.0304)
 -->
<!-- Title: dependencies Pages: 1 -->
<svg width="712pt" height="284pt"
 viewBox="0.00 0.00 712.00 284.00" xmlns="http://www.w3.org/2000/svg" xmlns:xlink="http://www.w3.org/1999/xlink">
<g id="graph0" class="graph" transform="scale(1 1) rotate(0) translate(4 280)">
<title>dependencies</title>
<polygon fill="#ffffff" stroke="transparent" points="-4,4 -4,-280 708,-280 708,4 -4,4"/>
<text text-anchor="start" x="331.0091" y="-42.4" font-family="sans-serif" font-weight="bold" font-size="14.00" fill="#000000">Legend</text>
<polygon fill="#ffffb3" stroke="transparent" points="118,-10 118,-30 138,-30 138,-10 118,-10"/>
<text text-anchor="start" x="141.629" y="-15.4" font-family="sans-serif" font-size="14.00" fill="#000000"> &#160;Declarations</text>
<polygon fill="#8dd3c7" stroke="transparent" points="231,-10 231,-30 251,-30 251,-10 231,-10"/>
<text text-anchor="start" x="254.7251" y="-15.4" font-family="sans-serif" font-size="14.00" fill="#000000"> &#160;Module</text>
<polygon fill="#80b1d3" stroke="transparent" points="317,-10 317,-30 337,-30 337,-10 317,-10"/>
<text text-anchor="start" x="340.7812" y="-15.4" font-family="sans-serif" font-size="14.00" fill="#000000"> &#160;Bootstrap</text>
<polygon fill="#fdb462" stroke="transparent" points="414,-10 414,-30 434,-30 434,-10 414,-10"/>
<text text-anchor="start" x="437.6732" y="-15.4" font-family="sans-serif" font-size="14.00" fill="#000000"> &#160;Providers</text>
<polygon fill="#fb8072" stroke="transparent" points="510,-10 510,-30 530,-30 530,-10 510,-10"/>
<text text-anchor="start" x="533.7258" y="-15.4" font-family="sans-serif" font-size="14.00" fill="#000000"> &#160;Exports</text>
<g id="clust1" class="cluster">
<title>cluster_ExpirationDateModule</title>
<polygon fill="none" stroke="#000000" stroke-dasharray="1,5" points="8,-70 8,-268 696,-268 696,-70 8,-70"/>
</g>
<g id="clust2" class="cluster">
<title>cluster_ExpirationDateModule_declarations</title>
<polygon fill="none" stroke="#000000" points="374,-78 374,-130 688,-130 688,-78 374,-78"/>
</g>
<g id="clust5" class="cluster">
<title>cluster_ExpirationDateModule_imports</title>
<polygon fill="none" stroke="#000000" points="238,-78 238,-130 366,-130 366,-78 238,-78"/>
</g>
<g id="clust6" class="cluster">
<title>cluster_ExpirationDateModule_exports</title>
<polygon fill="none" stroke="#000000" points="286,-208 286,-260 460,-260 460,-208 286,-208"/>
</g>
<g id="clust8" class="cluster">
<title>cluster_ExpirationDateModule_providers</title>
<polygon fill="none" stroke="#000000" points="16,-78 16,-130 230,-130 230,-78 16,-78"/>
</g>
<!-- ExpirationDateDirective -->
<g id="node1" class="node">
<title>ExpirationDateDirective</title>
<polygon fill="#ffffb3" stroke="#000000" points="679.6093,-122 526.3907,-122 526.3907,-86 679.6093,-86 679.6093,-122"/>
<text text-anchor="middle" x="603" y="-99.8" font-family="Times,serif" font-size="14.00" fill="#000000">ExpirationDateDirective</text>
</g>
<!-- ExpirationDateModule -->
<g id="node3" class="node">
<title>ExpirationDateModule</title>
<polygon fill="#8dd3c7" stroke="#000000" points="445.5758,-187 442.5758,-191 421.5758,-191 418.5758,-187 300.4242,-187 300.4242,-151 445.5758,-151 445.5758,-187"/>
<text text-anchor="middle" x="373" y="-164.8" font-family="Times,serif" font-size="14.00" fill="#000000">ExpirationDateModule</text>
</g>
<!-- ExpirationDateDirective&#45;&gt;ExpirationDateModule -->
<g id="edge1" class="edge">
<title>ExpirationDateDirective&#45;&gt;ExpirationDateModule</title>
<path fill="none" stroke="#000000" d="M603,-122.1061C603,-141.3391 603,-169 603,-169 603,-169 455.7734,-169 455.7734,-169"/>
<polygon fill="#000000" stroke="#000000" points="455.7735,-165.5001 445.7734,-169 455.7734,-172.5001 455.7735,-165.5001"/>
</g>
<!-- ExpirationDatePipe -->
<g id="node2" class="node">
<title>ExpirationDatePipe</title>
<polygon fill="#ffffb3" stroke="#000000" points="508.4145,-122 381.5855,-122 381.5855,-86 508.4145,-86 508.4145,-122"/>
<text text-anchor="middle" x="445" y="-99.8" font-family="Times,serif" font-size="14.00" fill="#000000">ExpirationDatePipe</text>
</g>
<!-- ExpirationDatePipe&#45;&gt;ExpirationDateModule -->
<g id="edge2" class="edge">
<title>ExpirationDatePipe&#45;&gt;ExpirationDateModule</title>
<path fill="none" stroke="#000000" d="M413.6655,-122.1061C413.6655,-122.1061 413.6655,-140.991 413.6655,-140.991"/>
<polygon fill="#000000" stroke="#000000" points="410.1656,-140.9909 413.6655,-150.991 417.1656,-140.991 410.1656,-140.9909"/>
</g>
<!-- ExpirationDateDirective  -->
<g id="node5" class="node">
<title>ExpirationDateDirective </title>
<polygon fill="#fb8072" stroke="#000000" points="451.6088,-252 294.3912,-252 294.3912,-216 451.6088,-216 451.6088,-252"/>
<text text-anchor="middle" x="373" y="-229.8" font-family="Times,serif" font-size="14.00" fill="#000000">ExpirationDateDirective </text>
</g>
<!-- ExpirationDateModule&#45;&gt;ExpirationDateDirective  -->
<g id="edge4" class="edge">
<title>ExpirationDateModule&#45;&gt;ExpirationDateDirective </title>
<path fill="none" stroke="#000000" stroke-dasharray="5,2" d="M373,-187.1061C373,-187.1061 373,-205.991 373,-205.991"/>
<polygon fill="#000000" stroke="#000000" points="369.5001,-205.9909 373,-215.991 376.5001,-205.991 369.5001,-205.9909"/>
</g>
<!-- CommonModule -->
<g id="node4" class="node">
<title>CommonModule</title>
<polygon fill="#8dd3c7" stroke="#000000" points="357.6681,-122 354.6681,-126 333.6681,-126 330.6681,-122 246.3319,-122 246.3319,-86 357.6681,-86 357.6681,-122"/>
<text text-anchor="middle" x="302" y="-99.8" font-family="Times,serif" font-size="14.00" fill="#000000">CommonModule</text>
</g>
<!-- CommonModule&#45;&gt;ExpirationDateModule -->
<g id="edge3" class="edge">
<title>CommonModule&#45;&gt;ExpirationDateModule</title>
<path fill="none" stroke="#000000" d="M329.148,-122.1061C329.148,-122.1061 329.148,-140.991 329.148,-140.991"/>
<polygon fill="#000000" stroke="#000000" points="325.648,-140.9909 329.148,-150.991 332.648,-140.991 325.648,-140.9909"/>
</g>
<!-- ExpirationDateService -->
<g id="node6" class="node">
<title>ExpirationDateService</title>
<ellipse fill="#fdb462" stroke="#000000" cx="123" cy="-104" rx="98.9723" ry="18"/>
<text text-anchor="middle" x="123" y="-99.8" font-family="Times,serif" font-size="14.00" fill="#000000">ExpirationDateService</text>
</g>
<!-- ExpirationDateService&#45;&gt;ExpirationDateModule -->
<g id="edge5" class="edge">
<title>ExpirationDateService&#45;&gt;ExpirationDateModule</title>
<path fill="none" stroke="#000000" d="M123,-122.1061C123,-141.3391 123,-169 123,-169 123,-169 290.3538,-169 290.3538,-169"/>
<polygon fill="#000000" stroke="#000000" points="290.3539,-172.5001 300.3538,-169 290.3538,-165.5001 290.3539,-172.5001"/>
</g>
</g>
</svg>
